<svg width="20" height="20" viewBox="0 0 20 20" fill="none" xmlns="http://www.w3.org/2000/svg">
<path d="M6.83925 3.33331C7.22258 3.33331 7.59591 3.45081 7.90925 3.66831L8.03925 3.76831L10.0184 5.41665H16.4584C16.9108 5.4165 17.3479 5.57988 17.6893 5.87668C18.0306 6.17347 18.2532 6.58367 18.3159 7.03165L18.3292 7.16331L18.3334 7.29165V14.7916C18.3335 15.2668 18.1532 15.7242 17.8289 16.0714C17.5047 16.4187 17.0607 16.63 16.5867 16.6625L16.4584 16.6666H3.54175C3.06664 16.6667 2.60923 16.4864 2.26195 16.1622C1.91468 15.8379 1.70343 15.394 1.67091 14.92L1.66675 14.7916V5.20831C1.66669 4.73321 1.84699 4.2758 2.17122 3.92852C2.49545 3.58124 2.93942 3.37 3.41341 3.33748L3.54175 3.33331H6.83925ZM8.03925 8.31581C7.74529 8.56043 7.38356 8.7093 7.00258 8.74248L6.83925 8.74998L2.91675 8.74915V14.7916C2.91675 15.1083 3.15175 15.37 3.45675 15.4108L3.54175 15.4166H16.4584C16.6094 15.4166 16.7554 15.3619 16.8692 15.2627C16.983 15.1634 17.057 15.0263 17.0776 14.8766L17.0834 14.7916V7.29165C17.0834 7.14061 17.0287 6.99469 16.9294 6.88087C16.8302 6.76705 16.693 6.69302 16.5434 6.67248L16.4584 6.66665H10.0176L8.03925 8.31581ZM6.83925 4.58331H3.54175C3.39072 4.58332 3.2448 4.63802 3.13097 4.73729C3.01715 4.83656 2.94312 4.97368 2.92258 5.12331L2.91675 5.20831V7.49915L6.83925 7.49998C6.9556 7.49984 7.0696 7.46723 7.16841 7.40581L7.23925 7.35581L8.81508 6.04081L7.24008 4.72831C7.15042 4.65348 7.04158 4.60527 6.92591 4.58915L6.83925 4.58331Z" fill="white"/>
</svg>
