<svg width="16" height="16" viewBox="0 0 16 16" fill="none" xmlns="http://www.w3.org/2000/svg">
<path d="M5.83329 7.66665H10.1666C10.8106 7.66665 11.3333 8.18931 11.3333 8.83331V11.5C11.3333 11.8094 11.2104 12.1061 10.9916 12.3249C10.7728 12.5437 10.476 12.6666 10.1666 12.6666H5.83329C5.52387 12.6666 5.22713 12.5437 5.00833 12.3249C4.78954 12.1061 4.66663 11.8094 4.66663 11.5V8.83331C4.66663 8.18931 5.18929 7.66665 5.83329 7.66665ZM5.66663 8.83331V9.66665H6.66663V8.66665H5.83329C5.78909 8.66665 5.7467 8.68421 5.71544 8.71546C5.68419 8.74672 5.66663 8.78911 5.66663 8.83331ZM5.66663 10.6666V11.5C5.66663 11.592 5.74129 11.6666 5.83329 11.6666H6.66663V10.6666H5.66663ZM7.66663 10.6666V11.6666H10.1666C10.2108 11.6666 10.2532 11.6491 10.2845 11.6178C10.3157 11.5866 10.3333 11.5442 10.3333 11.5V10.6666H7.66663ZM10.3333 9.66665V8.83331C10.3333 8.78911 10.3157 8.74672 10.2845 8.71546C10.2532 8.68421 10.2108 8.66665 10.1666 8.66665H7.66663V9.66665H10.3333ZM9.05663 1.72398C9.04632 1.7144 9.03541 1.70549 9.02396 1.69731C9.01571 1.69095 9.00771 1.68427 8.99996 1.67731C8.95409 1.63403 8.90531 1.59393 8.85396 1.55731C8.83689 1.5463 8.81907 1.5365 8.80063 1.52798L8.76863 1.51198L8.73529 1.49265C8.69929 1.47198 8.66263 1.45065 8.62463 1.43465C8.49187 1.38162 8.35136 1.35055 8.20863 1.34265C8.19529 1.34198 8.18196 1.33998 8.16929 1.33798C8.1512 1.33519 8.13293 1.33363 8.11463 1.33331H3.99996C3.64634 1.33331 3.3072 1.47379 3.05715 1.72384C2.8071 1.97389 2.66663 2.31302 2.66663 2.66665V13.3333C2.66663 13.6869 2.8071 14.0261 3.05715 14.2761C3.3072 14.5262 3.64634 14.6666 3.99996 14.6666H12C12.3536 14.6666 12.6927 14.5262 12.9428 14.2761C13.1928 14.0261 13.3333 13.6869 13.3333 13.3333V6.55198C13.3332 6.19839 13.1927 5.8593 12.9426 5.60931L9.05663 1.72398ZM12 13.6666H3.99996C3.91155 13.6666 3.82677 13.6315 3.76426 13.569C3.70175 13.5065 3.66663 13.4217 3.66663 13.3333V2.66665C3.66663 2.57824 3.70175 2.49346 3.76426 2.43094C3.82677 2.36843 3.91155 2.33331 3.99996 2.33331H7.99996V5.33331C7.99996 5.68693 8.14044 6.02607 8.39048 6.27612C8.64053 6.52617 8.97967 6.66665 9.33329 6.66665H12.3333V13.3333C12.3333 13.4217 12.2982 13.5065 12.2357 13.569C12.1731 13.6315 12.0884 13.6666 12 13.6666ZM11.5853 5.66665H9.33329C9.24489 5.66665 9.1601 5.63153 9.09759 5.56902C9.03508 5.5065 8.99996 5.42172 8.99996 5.33331V3.08065L11.5853 5.66665Z" fill="white"/>
</svg>
