
<svg width="14" height="14" viewBox="0 0 14 14" fill="none" xmlns="http://www.w3.org/2000/svg">
<path d="M6.53363 0.32722C6.56843 0.231337 6.63191 0.148494 6.71544 0.0899502C6.79896 0.0314061 6.89849 0 7.0005 0C7.1025 0 7.20203 0.0314061 7.28556 0.0899502C7.36909 0.148494 7.43257 0.231337 7.46737 0.32722L7.94219 1.62453C8.3141 2.6418 8.90357 3.56564 9.66946 4.33153C10.4354 5.09742 11.3592 5.6869 12.3765 6.05881L13.6728 6.53363C13.7687 6.56843 13.8515 6.63191 13.9101 6.71544C13.9686 6.79896 14 6.89849 14 7.0005C14 7.1025 13.9686 7.20203 13.9101 7.28556C13.8515 7.36909 13.7687 7.43257 13.6728 7.46737L12.3765 7.94219C11.3592 8.3141 10.4354 8.90357 9.66946 9.66946C8.90357 10.4354 8.3141 11.3592 7.94219 12.3765L7.46737 13.6728C7.43257 13.7687 7.36909 13.8515 7.28556 13.9101C7.20203 13.9686 7.1025 14 7.0005 14C6.89849 14 6.79896 13.9686 6.71544 13.9101C6.63191 13.8515 6.56843 13.7687 6.53363 13.6728L6.05881 12.3765C5.6869 11.3592 5.09742 10.4354 4.33153 9.66946C3.56564 8.90357 2.6418 8.3141 1.62453 7.94219L0.32722 7.46737C0.231337 7.43257 0.148494 7.36909 0.0899502 7.28556C0.0314061 7.20203 0 7.1025 0 7.0005C0 6.89849 0.0314061 6.79896 0.0899502 6.71544C0.148494 6.63191 0.231337 6.56843 0.32722 6.53363L1.62453 6.05881C2.6418 5.6869 3.56564 5.09742 4.33153 4.33153C5.09742 3.56564 5.6869 2.6418 6.05881 1.62453L6.53363 0.32722Z" fill="white"/>
</svg>
